<?xml version="1.0" encoding="utf-8"?>
<!-- Generator: Adobe Illustrator 16.0.0, SVG Export Plug-In . SVG Version: 6.00 Build 0)  -->
<!DOCTYPE svg PUBLIC "-//W3C//DTD SVG 1.1//EN" "http://www.w3.org/Graphics/SVG/1.1/DTD/svg11.dtd">
<svg version="1.1" id="Layer_1" xmlns="http://www.w3.org/2000/svg" xmlns:xlink="http://www.w3.org/1999/xlink" x="0px" y="0px"
	 width="1912.5px" height="2415.333px" viewBox="0 0 1912.5 2415.333" enable-background="new 0 0 1912.5 2415.333"
	 xml:space="preserve">
<g>
	<g>
		<path fill="#FFFFFF" d="M738.775,252.213c80.288,0,138.109,15.288,178.11,37.612L665.266,0.934H48.461v682.268
			C113.439,530.222,333.803,252.213,738.775,252.213z"/>
		<path fill="#FFFFFF" d="M684.547,1436.945v-164.981c-94.251,74.312-193.359,135.341-289.962,164.981H684.547z"/>
		<path fill="#FFFFFF" d="M126.376,1311.998c0-263.111,693.16-778.393,693.16-946.494c0-56.646-67.302-73.086-136.846-73.086
			c-145.805,0-551.827,175.413-551.827,434.877c0,95.015,60.567,148.002,174.974,173.584
			c-86.49,47.45-209.042,19.056-257.376-62.848v598.914h154.401C156.934,1410.501,126.376,1360.832,126.376,1311.998z"/>
	</g>
	<path fill="#FFFFFF" d="M1102.17,1346.726c0,40.902,24.719,65.413,63.82,72.62v-286.688
		C1126.934,1220.745,1102.17,1296.87,1102.17,1346.726z"/>
	<g>
		<path fill="#FFFFFF" d="M1802.527,0.934h-0.451v1435.078h-504.481c-0.714,0.308-1.406,0.638-2.121,0.934h507.052V0.934z"/>
		<g>
			<path fill="#FFFFFF" d="M1185.71,0.934h616.366V0h-616.805L927.4,296.07c0.264,0.17,0.549,0.33,0.813,0.5L1185.71,0.934z"/>
			<path fill="#FFFFFF" d="M928.213,296.57c45.626,29.504,64.05,68.769,64.05,101.821c0,29.548-17.809,69.417-47.703,116.197
				l28.751,421.727c184.438-203.242,347.091-419.205,425.094-517.577c67.302-10.964,147.041-2.511,218.826-9.827
				c-96.57,104.897-297.642,407.647-418.008,652.808l91.714,320.273c77.157-58.942,145.481-176.913,145.481-307.519
				c38.123,27.4,56.074,67.599,56.074,107.798c0,109.512-84.54,206.905-194.897,253.74h504.481V0.934H1185.71L928.213,296.57z"/>
			<path fill="#FFFFFF" d="M1165.99,1132.657v286.688c0.143,0.032,0.296,0.055,0.45,0.077v-287.766
				C1166.298,1131.998,1166.133,1132.328,1165.99,1132.657z"/>
			<path fill="#FFFFFF" d="M1166.44,1419.423c7.943,1.428,16.425,2.219,25.466,2.219c31.542,0,66.083-14.48,99.031-39.649
				l-91.714-320.273c-11.755,23.95-22.742,47.329-32.783,69.938V1419.423z"/>
			<path fill="#FFFFFF" d="M684.547,829.989v388.317c78.981-65.094,159.665-143.712,237.612-226.604L734.172,775.151
				C717.869,793.312,701.279,811.62,684.547,829.989z"/>
			<path fill="#FFFFFF" d="M285.645,1344.892c0,36.54,17.952,43.857,58.326,43.857c97.883,0,217.123-68.698,340.576-170.442V829.989
				C494.083,1039.054,285.645,1255.572,285.645,1344.892z"/>
			<path fill="#FFFFFF" d="M734.172,775.151l187.987,216.551c0.967-1.022,1.923-2.043,2.89-3.065V543.691
				C877.401,611.867,808.879,691.935,734.172,775.151z"/>
			<path fill="#FFFFFF" d="M925.049,988.638c16.227-17.293,32.322-34.755,48.263-52.323l-28.751-421.727
				c-6.021,9.426-12.546,19.138-19.512,29.103V988.638z"/>
		</g>
	</g>
</g>
<path fill="#FFFFFF" d="M1849.933,1815.348c1.659,0,2.89,0.23,3.714,0.703c1.482,0.813,2.23,2.428,2.23,4.834
	c0,2.22-0.77,3.702-2.308,4.449c-0.856,0.429-2.143,0.648-3.867,0.648h-8.679v-10.635H1849.933z M1851.613,1808.58h-18.588v39.287
	h7.998v-15.381h7.854c2.241,0,3.769,0.417,4.581,1.253c0.813,0.834,1.242,2.504,1.275,4.998l0.055,3.647
	c0.011,1.153,0.132,2.285,0.352,3.384c0.109,0.527,0.297,1.23,0.549,2.099h8.977v-0.989c-0.77-0.472-1.253-1.219-1.462-2.229
	c-0.143-0.638-0.208-1.856-0.208-3.647v-2.637c0-2.747-0.374-4.79-1.132-6.131c-0.747-1.34-2.032-2.384-3.835-3.109
	c2.143-0.746,3.691-2.021,4.626-3.822c0.934-1.813,1.396-3.648,1.396-5.516c0-1.549-0.242-2.922-0.715-4.131
	s-1.131-2.318-1.955-3.318c-1-1.208-2.22-2.12-3.637-2.746C1856.316,1808.976,1854.272,1808.635,1851.613,1808.58z"/>
<path fill="none" stroke="#FFFFFF" stroke-width="1.998" stroke-miterlimit="3.8637" d="M1816.985,1827.817
	c0-17.369,14.084-31.454,31.464-31.454c17.37,0,31.465,14.085,31.465,31.454c0,17.38-14.095,31.465-31.465,31.465
	C1831.069,1859.282,1816.985,1845.197,1816.985,1827.817L1816.985,1827.817z"/>
<rect y="-48.417" fill="none" width="1912.5" height="2463.75"/>
<path fill="#FFFFFF" d="M173.848,1728.6c0,28.96,8.339,50.899,36.414,50.899c30.712,0,37.293-20.621,37.293-50.46v-182.076H362.51
	v179.89c0,99.152-60.985,131.616-153.561,131.616c-85.556,0-152.683-35.101-152.683-125.475v-186.031h117.581V1728.6z"/>
<path fill="#FFFFFF" d="M405.945,1546.963h173.743l39.924,167.597h0.879l39.485-167.597h173.31v306.243H727.981l-1.758-240.436
	h-0.879l-60.106,240.436H567.4l-58.348-240.436h-1.758l-1.318,240.436H405.945V1546.963z"/>
<path fill="#FFFFFF" d="M1034.67,1612.771h0.879l33.333,100.481h-68.005L1034.67,1612.771z M848.633,1853.206h117.153l18.853-66.247
	h99.163l20.193,66.247h123.289l-109.248-306.243H956.14L848.633,1853.206z"/>
<path fill="#FFFFFF" d="M1490.515,1630.767c-26.323-9.218-57.458-15.359-90.813-15.359c-18.435,0-50.449,0.439-50.449,20.182
	c0,39.925,161.016,2.197,161.016,120.213c0,82.046-81.167,102.667-149.172,102.667c-45.198,0-82.485-4.384-126.365-14.479v-79.409
	c31.597,13.161,70.203,20.182,105.293,20.182c27.642,0,52.668-5.702,52.668-21.061c0-41.243-161.038-3.944-161.038-122.85
	c0-84.231,87.759-99.151,157.522-99.151c32.893,0,69.324,3.944,101.338,10.525V1630.767z"/>
<path fill="#FFFFFF" d="M1791.057,1630.767c-26.323-9.218-57.458-15.359-90.813-15.359c-18.435,0-50.449,0.439-50.449,20.182
	c0,39.925,161.016,2.197,161.016,120.213c0,82.046-81.167,102.667-149.172,102.667c-45.198,0-82.485-4.384-126.365-14.479v-79.409
	c31.597,13.161,70.203,20.182,105.293,20.182c27.642,0,52.668-5.702,52.668-21.061c0-41.243-161.038-3.944-161.038-122.85
	c0-84.231,87.759-99.151,157.522-99.151c32.893,0,69.324,3.944,101.338,10.525V1630.767z"/>
<path fill="#FFFFFF" d="M53.037,1927.716h106.924l24.571,103.14h0.539l24.302-103.14h106.649v188.459h-64.803l-1.077-147.963h-0.543
	l-36.991,147.963h-60.21l-35.909-147.963h-1.077l-0.812,147.963H53.037V1927.716z"/>
<path fill="#FFFFFF" d="M405.385,1927.716h163.35v45.362h-92.609v26.729h88.561v45.352h-88.561v25.653h94.504v45.362H405.385
	V1927.716z"/>
<path fill="#FFFFFF" d="M729.926,1971.452h17.82c25.922,0,32.398,16.743,32.398,49.143c0,31.321-5.938,48.604-32.129,48.604h-18.089
	V1971.452z M657.564,2116.175h103.14c54.003,0,95.043-22.412,95.043-93.691c0-76.409-38.073-94.768-92.071-94.768H657.564V2116.175z
	"/>
<path fill="#FFFFFF" d="M1015.038,1927.716v188.459h-72.356v-188.459H1015.038z"/>
<path fill="#FFFFFF" d="M1263.438,2111.857c-13.502,3.779-33.475,7.559-51.833,7.559c-62.645,0-112.863-32.937-112.863-100.173
	c0-63.183,52.383-94.769,112.863-94.769c19.973,0,31.86,2.429,51.295,5.944v49.68c-11.876-3.779-24.027-7.021-36.178-7.021
	c-30.784,0-53.998,16.469-53.998,47.241c0,32.41,21.599,48.879,51.57,48.879c13.228,0,25.917-2.703,39.144-7.295V2111.857z"/>
<path fill="#FFFFFF" d="M1443.801,1968.212h0.539l20.522,61.83h-41.847L1443.801,1968.212z M1329.324,2116.175h72.082l11.612-40.77
	h61.018l12.425,40.77h75.872l-67.236-188.459h-99.624L1329.324,2116.175z"/>
<path fill="#FFFFFF" d="M1636.578,1927.716h72.356v132.836h88.835v55.623h-161.191V1927.716z"/>
<path fill="#FFFFFF" d="M215.085,2240.387c-16.199-5.669-35.371-9.448-55.888-9.448c-11.343,0-31.053,0.264-31.053,12.414
	c0,24.577,99.091,1.352,99.091,73.982c0,50.493-49.95,63.183-91.802,63.183c-27.812,0-50.762-2.703-77.761-8.91v-48.867
	c19.44,8.097,43.204,12.415,64.803,12.415c17.007,0,32.398-3.505,32.398-12.965c0-25.378-99.091-2.428-99.091-75.597
	c0-51.845,54.003-61.018,96.932-61.018c20.248,0,42.66,2.428,62.37,6.481V2240.387z"/>
<path fill="#FFFFFF" d="M517.214,2372.959c-13.502,3.779-33.481,7.559-51.839,7.559c-62.644,0-112.863-32.938-112.863-100.174
	c0-63.183,52.383-94.768,112.863-94.768c19.979,0,31.86,2.428,51.3,5.943v49.681c-11.881-3.779-24.032-7.021-36.183-7.021
	c-30.778,0-53.998,16.468-53.998,47.241c0,32.409,21.599,48.878,51.57,48.878c13.228,0,25.922-2.702,39.15-7.295V2372.959z"/>
<path fill="#FFFFFF" d="M769.933,2188.817h72.362v188.459h-72.362v-67.774h-48.329v67.774h-72.361v-188.459h72.361v65.071h48.329
	V2188.817z"/>
<path fill="#FFFFFF" d="M1049.919,2283.047c0-17.557,2.165-52.108,28.894-52.108c27.532,0,29.421,34.552,29.696,52.108
	c-0.275,20.247-1.077,52.108-29.696,52.108C1052.886,2335.155,1049.919,2303.294,1049.919,2283.047z M1184.106,2283.047
	c0-63.183-39.419-97.471-105.293-97.471c-65.885,0-104.491,34.288-104.491,97.471c0,64.259,38.606,97.471,104.491,97.471
	C1144.688,2380.518,1184.106,2347.306,1184.106,2283.047z"/>
<path fill="#FFFFFF" d="M1372.115,2283.047c0-17.557,2.165-52.108,28.895-52.108c27.531,0,29.421,34.552,29.696,52.108
	c-0.275,20.247-1.077,52.108-29.696,52.108C1375.082,2335.155,1372.115,2303.294,1372.115,2283.047z M1506.303,2283.047
	c0-63.183-39.419-97.471-105.293-97.471c-65.885,0-104.491,34.288-104.491,97.471c0,64.259,38.606,97.471,104.491,97.471
	C1466.884,2380.518,1506.303,2347.306,1506.303,2283.047z"/>
<path fill="#FFFFFF" d="M1638.336,2188.817h72.356v132.835h88.835v55.624h-161.191V2188.817z"/>
</svg>
