<?xml version="1.0" encoding="utf-8"?>
<!-- Generator: Adobe Illustrator 16.0.0, SVG Export Plug-In . SVG Version: 6.00 Build 0)  -->
<!DOCTYPE svg PUBLIC "-//W3C//DTD SVG 1.1//EN" "http://www.w3.org/Graphics/SVG/1.1/DTD/svg11.dtd">
<svg version="1.1" id="Layer_1" xmlns="http://www.w3.org/2000/svg" xmlns:xlink="http://www.w3.org/1999/xlink" x="0px" y="0px"
	 width="1912.5px" height="2463.75px" viewBox="0 0 1912.5 2463.75" enable-background="new 0 0 1912.5 2463.75"
	 xml:space="preserve">
<g>
	<g>
		<path fill="#004FA3" d="M738.773,300.63c80.288,0,138.111,15.288,178.11,37.612L665.266,49.351H48.463v682.269
			C113.44,578.637,333.805,300.63,738.773,300.63z"/>
		<path fill="#004FA3" d="M684.545,1485.36v-164.979c-94.25,74.312-193.359,135.343-289.96,164.979H684.545z"/>
		<path fill="#004FA3" d="M126.378,1360.415c0-263.109,693.158-778.395,693.158-946.494c0-56.646-67.302-73.085-136.846-73.085
			c-145.806,0-551.825,175.412-551.825,434.878c0,95.015,60.564,147.999,174.973,173.584
			c-86.489,47.448-209.044,19.055-257.375-62.851v598.913H202.86C156.934,1458.918,126.378,1409.247,126.378,1360.415z"/>
	</g>
	<path fill="#004FA3" d="M1102.17,1395.141c0,40.904,24.72,65.417,63.822,72.624v-286.69
		C1126.934,1269.162,1102.17,1345.289,1102.17,1395.141z"/>
	<g>
		<path fill="#004FA3" d="M1802.527,49.351h-0.453v1435.078h-504.479c-0.717,0.308-1.406,0.638-2.123,0.932h507.055V49.351z"/>
		<g>
			<path fill="#004FA3" d="M1185.711,49.351h616.363v-0.932h-616.803L927.4,344.487c0.264,0.171,0.549,0.329,0.812,0.501
				L1185.711,49.351z"/>
			<path fill="#004FA3" d="M928.213,344.988c45.624,29.505,64.051,68.766,64.051,101.821c0,29.549-17.812,69.416-47.703,116.196
				L973.31,984.73c184.438-203.242,347.093-419.203,425.097-517.574c67.302-10.965,147.041-2.514,218.825-9.826
				c-96.569,104.897-297.642,407.646-418.008,652.808l91.714,320.273c77.159-58.944,145.48-176.915,145.48-307.521
				c38.123,27.4,56.074,67.597,56.074,107.798c0,109.512-84.537,206.903-194.896,253.74h504.479V49.351h-616.363L928.213,344.988z"
				/>
			<path fill="#004FA3" d="M1165.992,1181.074v286.69c0.141,0.03,0.295,0.053,0.448,0.075v-287.768
				C1166.3,1180.415,1166.133,1180.744,1165.992,1181.074z"/>
			<path fill="#004FA3" d="M1166.44,1467.84c7.945,1.428,16.427,2.219,25.466,2.219c31.54,0,66.081-14.48,99.031-39.647
				l-91.714-320.273c-11.755,23.95-22.741,47.329-32.783,69.935V1467.84z"/>
			<path fill="#004FA3" d="M684.545,878.405v388.318c78.982-65.092,159.666-143.71,237.612-226.604L734.172,823.57
				C717.869,841.729,701.279,860.036,684.545,878.405z"/>
			<path fill="#004FA3" d="M285.645,1393.309c0,36.54,17.951,43.857,58.324,43.857c97.884,0,217.125-68.7,340.576-170.442V878.405
				C494.082,1087.471,285.645,1303.989,285.645,1393.309z"/>
			<path fill="#004FA3" d="M734.172,823.57l187.985,216.549c0.967-1.023,1.925-2.043,2.892-3.062V592.11
				C877.403,660.283,808.879,740.352,734.172,823.57z"/>
			<path fill="#004FA3" d="M925.049,1037.057c16.225-17.297,32.322-34.756,48.261-52.326l-28.749-421.725
				c-6.021,9.426-12.547,19.138-19.512,29.104V1037.057z"/>
		</g>
	</g>
</g>
<path fill="#004FA3" d="M1849.931,1863.765c1.661,0,2.892,0.229,3.718,0.703c1.48,0.813,2.229,2.426,2.229,4.834
	c0,2.22-0.77,3.7-2.308,4.447c-0.856,0.431-2.145,0.65-3.867,0.65h-8.679v-10.635H1849.931z M1851.613,1856.997h-18.588v39.287
	h7.998v-15.381h7.853c2.241,0,3.771,0.417,4.583,1.253c0.813,0.834,1.244,2.504,1.275,4.996l0.057,3.647
	c0.009,1.155,0.132,2.285,0.352,3.384c0.105,0.527,0.295,1.23,0.545,2.101h8.979v-0.989c-0.77-0.47-1.253-1.217-1.464-2.228
	c-0.141-0.642-0.206-1.858-0.206-3.647v-2.637c0-2.751-0.374-4.79-1.13-6.135c-0.747-1.336-2.034-2.382-3.837-3.107
	c2.141-0.746,3.691-2.021,4.628-3.822c0.932-1.815,1.394-3.648,1.394-5.516c0-1.547-0.242-2.922-0.717-4.131
	c-0.471-1.209-1.129-2.32-1.951-3.318c-1.002-1.208-2.224-2.122-3.639-2.746C1856.316,1857.393,1854.272,1857.05,1851.613,1856.997z
	"/>
<path fill="none" stroke="#004FA3" stroke-width="1.998" stroke-miterlimit="3.8637" d="M1816.984,1876.236
	c0-17.371,14.085-31.456,31.465-31.456c17.372,0,31.465,14.085,31.465,31.456c0,17.376-14.093,31.465-31.465,31.465
	C1831.069,1907.701,1816.984,1893.612,1816.984,1876.236L1816.984,1876.236z"/>
<rect fill="none" width="1912.5" height="2463.75"/>
<path fill="#004FA3" d="M173.848,1777.017c0,28.96,8.341,50.897,36.413,50.897c30.714,0,37.292-20.619,37.292-50.458v-182.074
	H362.51v179.886c0,99.154-60.983,131.616-153.559,131.616c-85.557,0-152.684-35.099-152.684-125.473v-186.029h117.58V1777.017z"/>
<path fill="#004FA3" d="M405.945,1595.382h173.742l39.924,167.595h0.879l39.484-167.595h173.312v306.241H727.98l-1.758-240.438
	h-0.879l-60.104,240.438H567.4l-58.347-240.438h-1.758l-1.318,240.438H405.945V1595.382z"/>
<path fill="#004FA3" d="M1034.67,1661.186h0.879l33.333,100.485h-68.005L1034.67,1661.186z M848.633,1901.623h117.153l18.853-66.247
	h99.162l20.193,66.247h123.289l-109.248-306.241H956.141L848.633,1901.623z"/>
<path fill="#004FA3" d="M1490.516,1679.186c-26.324-9.22-57.459-15.363-90.813-15.363c-18.435,0-50.449,0.439-50.449,20.184
	c0,39.925,161.016,2.197,161.016,120.213c0,82.046-81.167,102.665-149.173,102.665c-45.197,0-82.484-4.382-126.364-14.476v-79.409
	c31.597,13.157,70.202,20.18,105.293,20.18c27.642,0,52.669-5.704,52.669-21.059c0-41.247-161.038-3.946-161.038-122.854
	c0-84.229,87.759-99.149,157.522-99.149c32.893,0,69.323,3.946,101.338,10.525V1679.186z"/>
<path fill="#004FA3" d="M1791.057,1679.186c-26.322-9.22-57.458-15.363-90.812-15.363c-18.436,0-50.449,0.439-50.449,20.184
	c0,39.925,161.016,2.197,161.016,120.213c0,82.046-81.167,102.665-149.172,102.665c-45.198,0-82.486-4.382-126.365-14.476v-79.409
	c31.597,13.157,70.203,20.18,105.293,20.18c27.642,0,52.668-5.704,52.668-21.059c0-41.247-161.037-3.946-161.037-122.854
	c0-84.229,87.759-99.149,157.521-99.149c32.894,0,69.324,3.946,101.338,10.525V1679.186z"/>
<path fill="#004FA3" d="M53.037,1976.133h106.924l24.57,103.14h0.54l24.302-103.14H316.02v188.459h-64.802l-1.077-147.963h-0.54
	l-36.993,147.963h-60.209l-35.908-147.963h-1.081l-0.809,147.963H53.037V1976.133z"/>
<path fill="#004FA3" d="M405.387,1976.133h163.35v45.36h-92.611v26.731h88.563v45.352h-88.563v25.651h94.505v45.364H405.387
	V1976.133z"/>
<path fill="#004FA3" d="M729.928,2019.867h17.819c25.919,0,32.396,16.743,32.396,49.145c0,31.319-5.937,48.604-32.128,48.604
	h-18.088V2019.867z M657.562,2164.592h103.14c54.005,0,95.045-22.412,95.045-93.691c0-76.407-38.074-94.768-92.069-94.768H657.562
	V2164.592z"/>
<path fill="#004FA3" d="M1015.04,1976.133v188.459h-72.36v-188.459H1015.04z"/>
<path fill="#004FA3" d="M1263.437,2160.272c-13.5,3.779-33.474,7.559-51.829,7.559c-62.648,0-112.865-32.933-112.865-100.169
	c0-63.185,52.383-94.772,112.865-94.772c19.969,0,31.86,2.431,51.293,5.946v49.68c-11.874-3.779-24.029-7.022-36.176-7.022
	c-30.788,0-54,16.471-54,47.241c0,32.414,21.6,48.881,51.57,48.881c13.227,0,25.914-2.703,39.142-7.295V2160.272z"/>
<path fill="#004FA3" d="M1443.801,2016.629h0.541l20.522,61.83h-41.849L1443.801,2016.629z M1329.324,2164.592h72.083l11.61-40.768
	h61.018l12.424,40.768h75.876l-67.236-188.459h-99.624L1329.324,2164.592z"/>
<path fill="#004FA3" d="M1636.576,1976.133h72.36v132.838h88.831v55.621h-161.191V1976.133z"/>
<path fill="#004FA3" d="M215.086,2288.804c-16.198-5.669-35.371-9.448-55.89-9.448c-11.343,0-31.052,0.264-31.052,12.414
	c0,24.579,99.092,1.35,99.092,73.982c0,50.493-49.952,63.185-91.801,63.185c-27.813,0-50.762-2.707-77.762-8.912v-48.867
	c19.441,8.095,43.203,12.415,64.802,12.415c17.007,0,32.396-3.503,32.396-12.965c0-25.378-99.088-2.43-99.088-75.599
	c0-51.843,54-61.014,96.931-61.014c20.25,0,42.662,2.426,62.371,6.478V2288.804z"/>
<path fill="#004FA3" d="M517.215,2421.378c-13.505,3.779-33.482,7.559-51.838,7.559c-62.645,0-112.865-32.941-112.865-100.178
	c0-63.181,52.383-94.764,112.865-94.764c19.977,0,31.859,2.426,51.297,5.941v49.681c-11.879-3.779-24.029-7.019-36.18-7.019
	c-30.779,0-54,16.466-54,47.241c0,32.405,21.599,48.876,51.569,48.876c13.228,0,25.923-2.702,39.151-7.295V2421.378z"/>
<path fill="#004FA3" d="M769.931,2237.234h72.364v188.459h-72.364v-67.772h-48.327v67.772h-72.359v-188.459h72.359v65.069h48.327
	V2237.234z"/>
<path fill="#004FA3" d="M1049.92,2331.466c0-17.561,2.166-52.11,28.894-52.11c27.532,0,29.421,34.55,29.698,52.11
	c-0.277,20.245-1.081,52.106-29.698,52.106C1052.886,2383.572,1049.92,2351.711,1049.92,2331.466z M1184.106,2331.466
	c0-63.185-39.419-97.471-105.293-97.471c-65.883,0-104.493,34.286-104.493,97.471c0,64.257,38.61,97.471,104.493,97.471
	C1144.688,2428.937,1184.106,2395.723,1184.106,2331.466z"/>
<path fill="#004FA3" d="M1372.113,2331.466c0-17.561,2.166-52.11,28.898-52.11c27.527,0,29.417,34.55,29.693,52.11
	c-0.276,20.245-1.076,52.106-29.693,52.106C1375.084,2383.572,1372.113,2351.711,1372.113,2331.466z M1506.305,2331.466
	c0-63.185-39.419-97.471-105.293-97.471c-65.887,0-104.493,34.286-104.493,97.471c0,64.257,38.606,97.471,104.493,97.471
	C1466.886,2428.937,1506.305,2395.723,1506.305,2331.466z"/>
<path fill="#004FA3" d="M1638.334,2237.234h72.36v132.833h88.831v55.626h-161.191V2237.234z"/>
</svg>
